<?xml version="1.0" standalone="no"?>
<!DOCTYPE svg PUBLIC "-//W3C//DTD SVG 20010904//EN"
 "http://www.w3.org/TR/2001/REC-SVG-20010904/DTD/svg10.dtd">
<svg version="1.0" xmlns="http://www.w3.org/2000/svg"
 width="700.000000pt" height="700.000000pt" viewBox="0 0 700.000000 700.000000"
 preserveAspectRatio="xMidYMid meet">
<metadata>
Created by potrace 1.11, written by Peter Selinger 2001-2013
</metadata>
<g transform="translate(0.000000,700.000000) scale(0.100000,-0.100000)"
fill="#000000" stroke="none">
<path d="M4580 6993 c-297 -52 -528 -213 -663 -463 -46 -86 -86 -200 -89 -255
-3 -49 0 -48 -88 -45 -106 2 -273 63 -338 123 -12 11 -33 45 -47 74 -56 123
-183 284 -238 302 -69 23 -140 -20 -151 -90 -6 -41 9 -73 72 -149 99 -122 184
-319 217 -505 2 -16 7 -39 9 -50 4 -22 16 -122 21 -189 4 -42 8 -271 6 -362
l-1 -52 -57 -7 c-381 -45 -747 -306 -946 -675 -69 -129 -133 -315 -151 -445
-21 -151 -79 -300 -172 -440 -53 -81 -76 -108 -194 -232 -341 -357 -556 -823
-607 -1313 -10 -98 -10 -342 0 -450 52 -549 344 -1037 817 -1363 283 -195 683
-342 1040 -383 30 -3 59 -8 63 -11 5 -3 113 -6 240 -8 208 -2 354 4 449 19 18
3 67 10 108 16 41 7 111 21 155 32 44 11 90 22 102 24 52 10 245 80 353 128
554 248 940 693 1085 1252 13 50 26 108 29 130 4 22 9 51 11 64 20 97 26 391
12 547 -21 236 -100 512 -213 748 -110 227 -213 374 -418 595 -106 114 -174
208 -228 313 -44 89 -104 259 -113 327 -17 120 -62 263 -122 389 -76 159 -146
257 -279 389 -176 173 -421 303 -640 338 -27 4 -52 9 -56 10 -5 1 -14 2 -20 3
-10 1 -13 46 -13 188 0 231 -11 365 -41 506 -20 97 -20 98 14 82 54 -27 206
-52 304 -49 64 2 78 -1 83 -14 7 -24 160 -171 222 -215 154 -108 332 -158 538
-152 238 7 433 93 610 270 78 79 126 128 410 430 77 81 150 158 161 170 l21
21 -151 69 c-83 38 -194 89 -246 113 -52 24 -108 50 -125 57 -16 7 -64 29
-105 48 -195 89 -218 98 -311 123 -61 16 -272 27 -329 17z"/>
</g>
</svg>
