<?xml version="1.0" standalone="no"?>
<!DOCTYPE svg PUBLIC "-//W3C//DTD SVG 20010904//EN"
 "http://www.w3.org/TR/2001/REC-SVG-20010904/DTD/svg10.dtd">
<svg version="1.0" xmlns="http://www.w3.org/2000/svg"
 width="640.000000pt" height="640.000000pt" viewBox="0 0 640.000000 640.000000"
 preserveAspectRatio="xMidYMid meet">
<metadata>
Created by potrace 1.14, written by Peter Selinger 2001-2017
</metadata>
<g transform="translate(0.000000,640.000000) scale(0.100000,-0.100000)"
fill="#000000" stroke="none">
<path d="M954 5641 c417 -417 756 -763 753 -768 -4 -6 -37 -13 -74 -17 -104
-9 -293 -52 -370 -82 -62 -24 -190 -114 -219 -154 -7 -8 -24 -28 -38 -45 -36
-41 -91 -150 -105 -207 -35 -147 -59 -600 -67 -1283 -4 -399 -8 -476 -25 -580
-34 -202 -7 -382 68 -448 31 -28 101 -77 109 -77 3 0 29 -15 57 -34 56 -37
375 -194 602 -296 77 -35 144 -67 150 -72 6 -5 -302 -320 -773 -791 -430 -430
-782 -783 -782 -784 0 -2 1386 -3 3080 -3 l3080 0 0 1020 0 1020 -382 2 -383
3 -2 125 c-1 69 -4 323 -8 564 -3 242 -8 444 -11 448 -3 5 -7 120 -10 256 -7
433 -39 572 -203 877 -41 75 -68 111 -135 178 -108 109 -340 235 -611 331
-235 84 -216 72 -252 157 -77 179 -135 214 -523 315 -113 29 -270 72 -350 94
-80 23 -165 48 -190 54 -41 11 -43 13 -20 19 14 4 712 7 1553 7 l1527 0 0 465
0 465 -3102 0 -3103 0 759 -759z m2082 -251 c55 -11 176 -42 269 -69 261 -76
345 -99 546 -151 368 -96 400 -114 427 -238 13 -57 66 -137 100 -151 15 -6 59
-19 97 -30 77 -21 148 -50 125 -51 -8 0 -32 5 -53 11 -22 6 -41 9 -43 6 -2 -2
42 -16 98 -31 57 -15 126 -36 153 -46 81 -30 300 -138 293 -145 -4 -5 -339
-119 -773 -265 -380 -127 -475 -161 -475 -169 0 -3 9 -12 21 -19 18 -11 44 -5
202 49 531 180 1043 349 1059 349 21 0 23 10 6 30 -7 7 13 -8 46 -35 113 -95
249 -326 271 -461 3 -16 19 -103 36 -194 29 -152 39 -269 30 -345 -2 -16 2
-56 8 -87 12 -56 10 -338 -4 -709 l-6 -146 -34 11 c-23 7 -35 17 -35 28 0 10
-4 18 -10 18 -5 0 -10 -8 -10 -17 0 -14 -7 -10 -25 13 -14 18 -38 34 -55 37
-18 4 -30 13 -30 22 0 17 -16 20 -25 5 -3 -5 -1 -10 4 -10 6 0 11 -4 11 -8 0
-11 -60 -32 -91 -32 -35 -1 -64 -20 -97 -66 -104 -144 -117 -345 -24 -383 22
-9 28 -17 25 -32 -3 -10 0 -19 6 -19 6 0 11 5 11 12 0 7 15 -2 33 -20 36 -35
70 -41 105 -16 19 13 28 13 58 4 63 -21 126 10 174 86 l27 44 6 -73 c5 -74 -1
-105 -14 -71 -7 18 -8 18 -8 -1 -1 -14 -12 -25 -34 -33 -18 -6 -132 -64 -252
-128 -316 -166 -394 -208 -635 -335 -118 -62 -228 -120 -245 -129 -18 -9 -30
-23 -30 -35 0 -11 -7 -20 -15 -20 -11 0 -16 13 -18 45 -1 25 -5 52 -8 60 -8
23 -24 -8 -24 -48 0 -56 -27 -72 -127 -73 -288 -5 -339 6 -958 208 -490 160
-942 319 -1135 398 -503 208 -998 452 -1037 512 -14 20 -14 32 -4 76 8 35 15
283 21 762 6 414 14 733 20 765 11 56 14 78 25 213 8 100 36 165 108 242 68
74 140 118 237 144 63 17 69 20 40 22 -35 1 -34 2 10 11 25 5 74 18 110 28 36
11 108 25 160 30 91 10 375 68 414 85 14 6 17 4 14 -11 -2 -15 -15 -21 -58
-26 -71 -9 -210 -54 -190 -61 8 -3 67 -15 130 -26 151 -27 232 -43 425 -86 88
-20 192 -43 230 -51 39 -9 79 -17 90 -20 11 -2 52 -12 90 -22 39 -10 131 -33
205 -51 74 -19 144 -37 155 -42 11 -4 65 -20 120 -34 55 -14 118 -32 140 -40
71 -24 119 -26 191 -6 283 77 322 91 258 91 -17 0 -57 9 -89 20 -80 28 -85 27
-85 -17 l0 -38 -105 1 c-127 1 -133 4 -136 92 -2 61 -19 101 -19 45 0 -15 -5
-46 -11 -68 -21 -83 -50 -111 -63 -60 -4 14 -11 25 -17 25 -8 0 -8 -4 0 -14 8
-10 9 -16 1 -21 -13 -8 -30 3 -30 21 0 8 -6 14 -12 15 -7 1 -24 2 -38 3 -14 0
-31 5 -37 9 -8 5 -13 4 -13 -2 0 -6 -7 -11 -16 -11 -10 0 -13 6 -9 19 4 14 0
20 -20 23 -14 3 -28 1 -31 -3 -3 -5 -10 -9 -16 -9 -6 0 -3 9 7 20 19 21 17 24
-9 14 -9 -3 -16 -12 -16 -20 0 -8 -9 -14 -20 -14 -23 0 -26 10 -7 29 10 10 8
12 -9 9 -22 -3 -74 20 -74 34 0 4 -7 8 -15 8 -8 0 -15 -8 -15 -17 0 -13 -3
-14 -12 -5 -7 7 -11 29 -9 50 1 27 -3 43 -15 53 -13 11 -18 11 -21 2 -3 -7
-11 -13 -18 -13 -8 0 -11 -7 -8 -21 5 -18 3 -20 -17 -14 -19 6 -21 4 -15 -14
4 -12 2 -21 -4 -21 -18 0 -13 42 7 56 14 10 15 16 5 31 -6 10 -17 16 -25 14
-36 -10 -43 -6 -40 23 3 26 1 28 -20 22 -13 -3 -28 -6 -33 -6 -6 0 -19 -16
-29 -35 -10 -19 -23 -32 -28 -29 -5 3 -4 12 2 19 14 17 5 35 -16 35 -8 0 -13
-4 -10 -9 4 -5 -5 -4 -19 2 -19 10 -23 17 -18 37 3 14 7 27 9 29 8 9 17 -9 17
-33 0 -19 2 -22 12 -13 6 6 10 19 8 28 -4 12 2 18 18 21 12 2 24 9 27 17 3 10
-2 12 -22 7 -19 -5 -28 -2 -32 9 -4 8 -11 15 -17 15 -7 0 -7 -4 1 -12 14 -14
16 -42 2 -33 -5 3 -20 -1 -32 -9 -25 -18 -53 -21 -43 -6 4 6 11 8 16 5 10 -7
11 1 3 33 -7 25 -34 31 -34 7 0 -8 -9 -15 -20 -15 -11 0 -20 7 -20 15 0 8 -4
15 -10 15 -17 0 -11 -23 12 -47 19 -20 20 -25 8 -33 -20 -13 -33 -13 -25 0 6
10 -6 14 -36 11 -8 -1 -26 2 -40 7 -17 7 -31 5 -47 -6 -12 -8 -26 -12 -30 -8
-3 4 0 11 7 15 7 5 10 14 7 20 -9 14 -46 15 -46 1 0 -5 -13 -10 -28 -10 -18 0
-39 -11 -59 -30 -30 -29 -47 -31 -36 -4 3 8 -2 23 -12 34 -10 11 -14 24 -9 32
6 9 3 9 -10 -1 -15 -13 -19 -13 -28 0 -7 11 -11 11 -15 2 -2 -7 -9 -13 -15
-13 -6 0 -7 7 -3 18 5 9 9 54 11 100 2 45 6 88 11 95 4 6 6 22 4 35 -1 13 3
29 9 37 7 8 9 27 6 42 -10 47 4 57 76 50 59 -5 61 -5 33 8 -16 8 -36 14 -43
15 -7 0 -11 4 -8 9 3 5 60 19 127 32 111 21 127 22 188 9 36 -7 87 -13 113
-14 25 -1 50 -4 54 -8 4 -5 14 -8 22 -8 11 0 12 3 3 14 -8 10 -9 16 -1 21 6 3
8 11 5 16 -4 5 -3 15 1 21 5 7 8 24 8 38 1 22 6 26 41 30 34 5 37 7 18 13 -13
5 -23 12 -23 16 0 11 65 39 115 50 22 5 41 9 41 10 1 1 46 -8 100 -19z m-926
-655 c0 -11 -11 -15 -37 -15 -49 0 -28 20 30 29 4 0 7 -6 7 -14z m525 -25 c3
-5 1 -10 -4 -10 -6 0 -11 5 -11 10 0 6 2 10 4 10 3 0 8 -4 11 -10z m158 -50
c-4 -15 0 -20 13 -20 17 0 17 -1 2 -17 -14 -13 -20 -14 -32 -3 -19 15 -21 46
-3 53 22 9 25 7 20 -13z m77 -36 c0 -3 -9 -17 -20 -31 -16 -21 -21 -23 -26
-10 -6 18 14 46 34 47 6 0 12 -3 12 -6z m80 -19 c0 -8 -4 -15 -10 -15 -5 0
-10 7 -10 15 0 8 5 15 10 15 6 0 10 -7 10 -15z m-185 -5 c8 -13 -5 -13 -25 0
-13 8 -13 10 2 10 9 0 20 -4 23 -10z m185 -60 c0 -5 -2 -10 -4 -10 -3 0 -8 5
-11 10 -3 6 -1 10 4 10 6 0 11 -4 11 -10z m2150 -2140 c0 -5 -4 -10 -10 -10
-5 0 -10 5 -10 10 0 6 5 10 10 10 6 0 10 -4 10 -10z"/>
<path d="M3148 5223 c7 -3 16 -2 19 1 4 3 -2 6 -13 5 -11 0 -14 -3 -6 -6z"/>
<path d="M3045 5210 c-8 -13 -1 -24 14 -19 6 3 7 10 2 18 -6 10 -10 10 -16 1z"/>
<path d="M3190 5217 c0 -3 17 -11 38 -17 71 -22 92 -32 92 -46 0 -17 17 -18
24 -1 3 8 9 6 21 -8 13 -16 17 -17 24 -6 7 10 13 11 29 2 23 -12 121 -27 111
-17 -7 7 -98 35 -219 68 -106 28 -120 31 -120 25z"/>
<path d="M2765 5180 c-16 -5 -13 -8 15 -13 39 -8 46 -5 22 9 -9 6 -26 8 -37 4z"/>
<path d="M3070 5159 c0 -18 2 -19 15 -9 8 7 15 16 15 21 0 5 -7 9 -15 9 -9 0
-15 -9 -15 -21z"/>
<path d="M2854 5148 c27 -15 208 -68 232 -68 21 0 23 2 12 19 -8 13 -22 19
-41 19 -16 -1 -32 3 -35 9 -4 5 -24 10 -46 10 -21 1 -41 5 -45 10 -3 4 -25 8
-49 8 -27 1 -37 -2 -28 -7z"/>
<path d="M3185 5130 c3 -5 8 -10 11 -10 2 0 4 5 4 10 0 6 -5 10 -11 10 -5 0
-7 -4 -4 -10z"/>
<path d="M3295 5107 c-4 -10 -13 -16 -20 -13 -7 2 -12 -3 -11 -12 1 -14 -8
-17 -49 -15 l-50 1 34 -14 c19 -8 42 -12 52 -9 9 3 20 1 23 -4 4 -5 27 -13 51
-17 25 -3 48 -10 51 -15 3 -5 25 -9 50 -9 25 0 61 -7 81 -15 43 -18 79 -21 49
-3 -43 24 -114 45 -147 42 -19 -2 -29 -1 -22 2 7 3 9 12 6 20 -3 7 -9 12 -13
9 -16 -10 -57 17 -67 43 -9 24 -11 25 -18 9z"/>
<path d="M3548 5113 c7 -3 16 -2 19 1 4 3 -2 6 -13 5 -11 0 -14 -3 -6 -6z"/>
<path d="M3195 5090 c-3 -5 3 -10 14 -10 12 0 21 5 21 10 0 6 -6 10 -14 10 -8
0 -18 -4 -21 -10z"/>
<path d="M3130 5080 c0 -5 7 -10 16 -10 8 0 12 5 9 10 -3 6 -10 10 -16 10 -5
0 -9 -4 -9 -10z"/>
<path d="M3690 5081 c0 -5 5 -13 10 -16 6 -3 10 -2 10 4 0 5 -4 13 -10 16 -5
3 -10 2 -10 -4z"/>
<path d="M3500 5060 c0 -5 7 -10 15 -10 8 0 15 5 15 10 0 6 -7 10 -15 10 -8 0
-15 -4 -15 -10z"/>
<path d="M3798 5053 c6 -2 18 -2 25 0 6 3 1 5 -13 5 -14 0 -19 -2 -12 -5z"/>
<path d="M2630 5035 c19 -9 43 -21 52 -26 10 -5 25 -9 33 -9 8 0 15 -9 15 -20
0 -11 5 -20 10 -20 6 0 10 7 10 15 0 9 6 12 15 9 8 -4 15 -14 15 -23 0 -13 2
-14 9 -2 8 12 16 13 48 3 21 -6 58 -13 83 -16 l45 -6 -34 15 c-18 8 -38 15
-45 15 -6 0 -59 15 -118 34 -59 19 -122 37 -140 41 l-33 6 35 -16z"/>
<path d="M3908 5043 c7 -3 16 -2 19 1 4 3 -2 6 -13 5 -11 0 -14 -3 -6 -6z"/>
<path d="M2690 4920 c-15 -21 -40 -27 -40 -10 0 6 -4 10 -9 10 -5 0 -7 -9 -4
-20 4 -16 2 -19 -12 -13 -13 4 -16 3 -11 -5 9 -15 36 -16 36 -2 0 7 6 7 20 0
16 -9 20 -8 20 5 0 22 17 19 30 -6 7 -11 18 -18 25 -15 8 3 17 1 20 -4 8 -13
25 -13 25 0 0 6 -6 10 -14 10 -7 0 -19 7 -26 15 -7 8 -16 12 -21 9 -5 -3 -9 6
-9 20 0 31 -10 33 -30 6z"/>
<path d="M3625 4930 c3 -5 8 -10 11 -10 2 0 4 5 4 10 0 6 -5 10 -11 10 -5 0
-7 -4 -4 -10z"/>
<path d="M4037 4878 c14 -144 14 -196 -2 -251 -19 -67 -32 -78 -56 -49 -11 14
-19 18 -21 10 -3 -8 -12 -5 -28 10 -13 12 -26 19 -31 17 -4 -3 -10 13 -14 35
-6 34 -11 40 -31 40 -16 0 -24 -6 -24 -17 0 -30 -14 -3 -20 40 -7 40 -7 41
-18 17 l-11 -25 0 23 c-1 22 -30 64 -32 45 0 -4 -9 12 -20 36 -23 53 -31 50
-18 -6 5 -23 10 -75 12 -115 l3 -73 184 -47 c102 -26 207 -47 234 -48 44 0
191 37 237 61 9 4 33 11 53 14 41 8 55 22 31 32 -10 3 -31 -2 -48 -12 -19 -11
-47 -18 -69 -16 -21 1 -38 -3 -38 -8 0 -5 -21 -10 -47 -11 -27 0 -72 -1 -101
-2 -58 -1 -90 18 -89 55 1 56 -16 253 -24 274 -14 37 -18 27 -12 -29z m-285
-163 c-6 -34 -12 -32 -12 6 0 16 4 28 9 25 4 -3 6 -17 3 -31z"/>
<path d="M3650 4916 c0 -3 11 -17 24 -31 17 -18 26 -22 32 -14 4 7 -3 19 -17
30 -23 18 -39 24 -39 15z"/>
<path d="M3095 4900 c3 -5 12 -7 20 -3 21 7 19 13 -6 13 -11 0 -18 -4 -14 -10z"/>
<path d="M2906 4891 c-3 -5 1 -12 10 -15 27 -11 37 -7 24 9 -14 17 -26 19 -34
6z"/>
<path d="M3200 4886 c0 -2 7 -6 15 -10 8 -3 15 -1 15 4 0 6 -7 10 -15 10 -8 0
-15 -2 -15 -4z"/>
<path d="M3732 4849 c-1 -32 14 -35 32 -6 8 13 7 20 -4 27 -23 15 -27 12 -28
-21z"/>
<path d="M2657 4826 c-4 -10 -1 -13 8 -9 8 3 12 9 9 14 -7 12 -11 11 -17 -5z"/>
<path d="M2895 4820 c3 -5 8 -10 11 -10 2 0 4 5 4 10 0 6 -5 10 -11 10 -5 0
-7 -4 -4 -10z"/>
<path d="M3760 4812 c0 -20 36 -46 45 -32 6 10 -24 50 -37 50 -5 0 -8 -8 -8
-18z"/>
<path d="M2450 4801 c-7 -15 -7 -21 0 -21 12 0 25 28 17 36 -3 3 -10 -4 -17
-15z"/>
<path d="M2700 4811 c0 -5 7 -12 16 -15 14 -5 15 -4 4 9 -14 17 -20 19 -20 6z"/>
<path d="M2830 4800 c-9 -6 -10 -10 -3 -10 6 0 15 5 18 10 8 12 4 12 -15 0z"/>
<path d="M2920 4800 c0 -5 9 -10 21 -10 11 0 17 5 14 10 -3 6 -13 10 -21 10
-8 0 -14 -4 -14 -10z"/>
<path d="M2365 4790 c-3 -5 1 -10 10 -10 9 0 13 5 10 10 -3 6 -8 10 -10 10 -2
0 -7 -4 -10 -10z"/>
<path d="M2477 4764 c-13 -13 -7 -24 14 -24 11 0 19 5 17 12 -5 14 -22 21 -31
12z"/>
<path d="M3446 4741 c-9 -13 3 -143 14 -154 15 -16 17 8 8 83 -9 79 -12 87
-22 71z"/>
<path d="M4388 4743 c7 -3 16 -2 19 1 4 3 -2 6 -13 5 -11 0 -14 -3 -6 -6z"/>
<path d="M2820 4730 c-9 -6 -10 -10 -3 -10 6 0 15 5 18 10 8 12 4 12 -15 0z"/>
<path d="M4428 4733 c7 -3 16 -2 19 1 4 3 -2 6 -13 5 -11 0 -14 -3 -6 -6z"/>
<path d="M3826 4722 c-3 -6 -1 -14 5 -17 15 -10 25 3 12 16 -7 7 -13 7 -17 1z"/>
<path d="M2880 4710 c0 -5 5 -10 10 -10 6 0 10 5 10 10 0 6 -4 10 -10 10 -5 0
-10 -4 -10 -10z"/>
<path d="M2907 4663 c-10 -9 -9 -23 2 -23 5 0 11 7 15 15 5 15 -5 20 -17 8z"/>
<path d="M1540 4651 c8 -5 86 -18 172 -30 86 -12 201 -32 255 -45 376 -91 508
-118 492 -102 -5 6 -287 79 -404 105 -169 38 -446 82 -509 81 -17 -1 -18 -2
-6 -9z"/>
<path d="M3016 4645 c4 -8 11 -15 16 -15 6 0 5 6 -2 15 -7 8 -14 15 -16 15 -2
0 -1 -7 2 -15z"/>
<path d="M3170 4635 c0 -8 5 -15 10 -15 6 0 10 7 10 15 0 8 -4 15 -10 15 -5 0
-10 -7 -10 -15z"/>
<path d="M3950 4620 c0 -5 5 -10 11 -10 5 0 7 5 4 10 -3 6 -8 10 -11 10 -2 0
-4 -4 -4 -10z"/>
<path d="M3255 4480 c3 -5 10 -10 16 -10 5 0 9 5 9 10 0 6 -7 10 -16 10 -8 0
-12 -4 -9 -10z"/>
<path d="M5025 4190 c-3 -5 -1 -10 4 -10 6 0 11 5 11 10 0 6 -2 10 -4 10 -3 0
-8 -4 -11 -10z"/>
<path d="M4990 4159 c0 -16 -4 -20 -17 -14 -14 5 -15 4 -6 -6 10 -10 15 -9 28
1 17 14 20 40 5 40 -5 0 -10 -9 -10 -21z"/>
<path d="M4911 4131 c-8 -5 -19 -7 -25 -5 -16 5 -49 -23 -41 -35 10 -18 25
-12 25 9 0 25 20 27 20 3 1 -17 1 -17 14 0 7 9 21 17 30 17 10 0 14 5 11 10
-8 12 -16 12 -34 1z"/>
<path d="M4620 4103 c0 -9 13 -37 29 -62 24 -39 77 -143 113 -226 5 -11 16
-45 24 -75 8 -30 18 -63 21 -72 3 -10 1 -18 -4 -18 -6 0 -15 17 -21 38 -16 51
-63 143 -58 112 12 -64 28 -127 36 -142 7 -13 7 -18 -2 -18 -7 0 -53 -16 -103
-36 -49 -20 -100 -40 -112 -45 -13 -5 -26 -23 -33 -46 -11 -36 -18 -41 -121
-87 -83 -37 -109 -53 -109 -68 0 -28 26 -33 97 -16 57 14 70 14 111 1 54 -16
154 -6 254 28 73 24 82 24 96 -3 7 -15 17 -190 27 -478 17 -504 20 -540 40
-540 32 0 33 32 14 629 -6 183 -8 336 -4 339 3 3 41 -5 85 -17 74 -22 82 -22
112 -8 79 36 128 56 196 81 130 46 157 71 150 132 -3 28 -10 31 -133 75 -122
44 -131 49 -139 78 -14 47 -40 48 -166 6 -63 -22 -115 -34 -119 -29 -4 5 -25
59 -46 119 -44 129 -125 291 -168 335 -32 33 -67 40 -67 13z m817 -619 c10
-25 -15 -40 -148 -88 -151 -55 -162 -56 -153 -18 4 15 7 27 8 28 4 4 264 93
274 93 7 1 15 -6 19 -15z m-409 -59 c34 -10 62 -22 62 -27 0 -4 -3 -8 -6 -8
-12 0 -154 53 -154 57 0 3 8 3 18 0 9 -2 45 -13 80 -22z"/>
<path d="M4815 4080 c3 -5 8 -10 11 -10 2 0 4 5 4 10 0 6 -5 10 -11 10 -5 0
-7 -4 -4 -10z"/>
<path d="M4965 4070 c-3 -6 1 -7 9 -4 18 7 21 14 7 14 -6 0 -13 -4 -16 -10z"/>
<path d="M5006 4013 c-11 -11 -6 -23 9 -23 8 0 15 4 15 9 0 13 -16 22 -24 14z"/>
<path d="M5030 3955 c0 -8 5 -15 10 -15 6 0 10 7 10 15 0 8 -4 15 -10 15 -5 0
-10 -7 -10 -15z"/>
<path d="M5046 3923 c-11 -11 -6 -23 9 -23 8 0 15 4 15 9 0 13 -16 22 -24 14z"/>
<path d="M5054 3855 c-10 -8 -14 -15 -8 -15 5 0 14 4 20 9 5 5 18 11 29 14 20
5 19 5 -1 6 -11 0 -29 -6 -40 -14z"/>
<path d="M5111 3804 c0 -11 3 -14 6 -6 3 7 2 16 -1 19 -3 4 -6 -2 -5 -13z"/>
<path d="M5105 3770 c-3 -5 -17 -10 -31 -10 -13 0 -24 -4 -24 -10 0 -12 0 -12
39 1 17 6 31 15 31 20 0 12 -7 11 -15 -1z"/>
<path d="M4100 3581 c0 -5 5 -13 10 -16 6 -3 10 -2 10 4 0 5 -4 13 -10 16 -5
3 -10 2 -10 -4z"/>
<path d="M4120 3540 c0 -5 7 -27 15 -47 16 -41 49 -188 60 -266 3 -27 9 -46
12 -43 12 12 -21 206 -49 283 -28 78 -38 97 -38 73z"/>
<path d="M3827 3493 c-11 -11 -8 -71 4 -79 7 -4 9 -21 5 -46 -4 -22 -3 -44 1
-51 4 -6 8 -23 9 -36 2 -14 8 -27 14 -29 5 -2 10 -17 10 -33 0 -16 5 -29 10
-29 20 0 6 167 -22 268 -12 41 -18 48 -31 35z"/>
<path d="M4151 3154 c0 -11 3 -14 6 -6 3 7 2 16 -1 19 -3 4 -6 -2 -5 -13z"/>
<path d="M4161 2959 c0 -41 4 -94 9 -119 5 -29 6 -5 3 70 -6 131 -13 160 -12
49z"/>
<path d="M4171 2764 c0 -11 3 -14 6 -6 3 7 2 16 -1 19 -3 4 -6 -2 -5 -13z"/>
<path d="M4183 2645 c0 -33 2 -45 4 -27 2 18 2 45 0 60 -2 15 -4 0 -4 -33z"/>
<path d="M4530 2487 c-77 -38 -115 -143 -72 -197 l18 -23 61 27 c46 21 65 36
82 66 25 45 27 97 5 128 -19 27 -37 27 -94 -1z m88 -51 c8 -41 -8 -66 -62 -93
-63 -30 -86 -26 -86 16 0 32 22 61 48 62 9 0 31 9 47 19 35 21 49 20 53 -4z"/>
<path d="M4962 2430 c0 -14 2 -19 5 -12 2 6 2 18 0 25 -3 6 -5 1 -5 -13z"/>
<path d="M1695 2353 c12 -30 14 -117 3 -131 -16 -18 -5 -25 102 -61 108 -38
121 -42 172 -64 33 -15 38 -15 50 0 11 15 10 16 -10 11 -15 -4 -25 -1 -32 12
-17 31 -13 42 11 30 26 -14 33 -8 25 24 -8 33 -45 45 -63 20 -8 -11 -12 -29
-10 -42 3 -14 0 -21 -7 -19 -19 6 -19 50 1 65 17 12 17 14 0 23 -9 6 -15 14
-12 19 3 5 1 11 -4 14 -5 3 -12 -1 -15 -10 -8 -21 -28 -7 -21 15 3 10 3 26 -1
35 -5 13 -9 14 -20 5 -11 -9 -14 -8 -14 5 0 9 -4 16 -10 16 -5 0 -13 1 -17 3
-4 1 -6 -23 -4 -53 2 -51 0 -57 -24 -70 -22 -12 -28 -12 -41 2 -9 8 -14 26
-12 39 l5 24 11 -25 c10 -23 11 -21 11 20 -1 25 -3 39 -6 33 -8 -22 -23 -14
-23 12 0 34 25 32 44 -2 l15 -28 1 28 c0 24 -7 31 -46 47 -56 25 -68 25 -59 3z
m173 -92 c3 -8 -1 -12 -9 -9 -7 2 -15 10 -17 17 -3 8 1 12 9 9 7 -2 15 -10 17
-17z m-3 -62 c2 -13 0 -28 -3 -33 -7 -12 -22 15 -22 42 0 31 23 23 25 -9z m37
-14 c2 -19 0 -35 -4 -35 -4 0 -8 16 -8 35 0 19 2 35 4 35 2 0 6 -16 8 -35z
m88 -5 c0 -5 -5 -10 -11 -10 -5 0 -7 5 -4 10 3 6 8 10 11 10 2 0 4 -4 4 -10z"/>
<path d="M4385 2330 c-3 -5 -2 -10 4 -10 5 0 13 5 16 10 3 6 2 10 -4 10 -5 0
-13 -4 -16 -10z"/>
<path d="M4914 2319 c-19 -22 -19 -22 4 -10 12 6 22 16 22 21 0 15 -5 12 -26
-11z"/>
<path d="M4318 2313 c-10 -2 -18 -9 -18 -14 0 -12 13 -12 26 0 5 5 18 11 29
14 l20 5 -20 0 c-11 0 -28 -2 -37 -5z"/>
<path d="M4542 2183 c-67 -32 -92 -70 -92 -139 0 -74 14 -82 88 -49 76 34 116
90 107 150 -6 42 -20 65 -39 65 -6 -1 -35 -12 -64 -27z m79 -50 c11 -31 -11
-64 -61 -90 -61 -32 -85 -28 -83 15 1 37 18 62 42 62 9 0 30 9 46 19 36 23 46
22 56 -6z"/>
<path d="M2237 2051 c-3 -11 1 -22 8 -24 8 -4 10 3 7 19 -5 29 -8 30 -15 5z"/>
<path d="M2320 2040 c0 -5 5 -10 11 -10 5 0 7 5 4 10 -3 6 -8 10 -11 10 -2 0
-4 -4 -4 -10z"/>
<path d="M4395 2020 c-3 -5 -1 -10 4 -10 6 0 11 5 11 10 0 6 -2 10 -4 10 -3 0
-8 -4 -11 -10z"/>
<path d="M4345 2000 c-3 -5 -1 -10 4 -10 6 0 11 5 11 10 0 6 -2 10 -4 10 -3 0
-8 -4 -11 -10z"/>
<path d="M4540 1882 c-68 -33 -92 -74 -88 -147 3 -45 5 -50 28 -53 35 -3 120
47 147 87 25 36 29 74 13 115 -12 33 -31 33 -100 -2z m90 -32 c19 -36 -10 -83
-70 -113 -65 -33 -93 -24 -85 25 9 47 22 66 63 87 48 26 79 26 92 1z"/>
<path d="M4355 1710 c-3 -6 1 -7 9 -4 18 7 21 14 7 14 -6 0 -13 -4 -16 -10z"/>
</g>
</svg>
